<svg xmlns="http://www.w3.org/2000/svg" viewBox="0 0 258 55">
  <path
    d="M130.26.0 105.51 52.7 81.68.25l-.1-.22h-8.09l25.78 54.79.1.21h7.41l26.09-55h-2.61zm36.52 0h-9.61l-26.63 55h5.34l6.19-13.18h36.5l5.99 13.18h8.09L166.88.25l-.1-.21zM142.95 40l17.68-37.64L177.74 40h-34.79zm90.88-20.51 19.99-18.11L252.61 0l-40.47 35.79V.03h-7.74v55h7.86l-3.62-13.59 22.45-19.41 17.84 32.81.11.19h9.28l-24.49-35.54zM49.88 47.17 4.15.15 4.04.03H0v55h4.86V3.88l48.58 51.04.11.11h4.43v-55H50.4l-.52 47.14z"
    style="fill:#0d0d0d" />
</svg>